<mxfile host="Electron" agent="Mozilla/5.0 (Macintosh; Intel Mac OS X 10_15_7) AppleWebKit/537.36 (KHTML, like Gecko) draw.io/24.7.8 Chrome/128.0.6613.36 Electron/32.0.1 Safari/537.36" version="24.7.8" pages="2">
  <diagram name="csi" id="wIycrr-wxAbVKh9snlaM">
    <mxGraphModel dx="1029" dy="792" grid="1" gridSize="10" guides="1" tooltips="1" connect="1" arrows="1" fold="1" page="1" pageScale="1" pageWidth="827" pageHeight="1169" math="0" shadow="0">
      <root>
        <mxCell id="0" />
        <mxCell id="1" parent="0" />
        <mxCell id="p5qbgg7JnGvHFCRVUiYN-32" value="" style="rounded=0;whiteSpace=wrap;html=1;strokeColor=none;" vertex="1" parent="1">
          <mxGeometry x="9" y="20" width="950" height="690" as="geometry" />
        </mxCell>
        <mxCell id="p5qbgg7JnGvHFCRVUiYN-13" value="CSI driver prepare" style="shape=umlFrame;whiteSpace=wrap;html=1;pointerEvents=0;width=110;height=30;dashed=1;fillColor=#ffe6cc;strokeColor=#d79b00;" vertex="1" parent="1">
          <mxGeometry x="29" y="155" width="890" height="115" as="geometry" />
        </mxCell>
        <mxCell id="p5qbgg7JnGvHFCRVUiYN-10" value="" style="rounded=0;whiteSpace=wrap;html=1;align=left;fillColor=#d5e8d4;strokeColor=#82b366;" vertex="1" parent="1">
          <mxGeometry x="547" y="50" width="240" height="90" as="geometry" />
        </mxCell>
        <mxCell id="p5qbgg7JnGvHFCRVUiYN-5" value="" style="rounded=0;whiteSpace=wrap;html=1;align=left;fillColor=#dae8fc;strokeColor=#6c8ebf;" vertex="1" parent="1">
          <mxGeometry x="329" y="50" width="200" height="88" as="geometry" />
        </mxCell>
        <mxCell id="p5qbgg7JnGvHFCRVUiYN-1" value="kube-api-server" style="shape=umlLifeline;perimeter=lifelinePerimeter;whiteSpace=wrap;html=1;container=1;dropTarget=0;collapsible=0;recursiveResize=0;outlineConnect=0;portConstraint=eastwest;newEdgeStyle={&quot;curved&quot;:0,&quot;rounded&quot;:0};fillColor=#f5f5f5;fontColor=#333333;strokeColor=#666666;" vertex="1" parent="1">
          <mxGeometry x="103" y="80" width="100" height="600" as="geometry" />
        </mxCell>
        <mxCell id="p5qbgg7JnGvHFCRVUiYN-2" value="provisioner" style="shape=umlLifeline;perimeter=lifelinePerimeter;whiteSpace=wrap;html=1;container=1;dropTarget=0;collapsible=0;recursiveResize=0;outlineConnect=0;portConstraint=eastwest;newEdgeStyle={&quot;curved&quot;:0,&quot;rounded&quot;:0};fillColor=#ffe6cc;strokeColor=#d79b00;" vertex="1" parent="1">
          <mxGeometry x="339" y="80" width="80" height="600" as="geometry" />
        </mxCell>
        <mxCell id="p5qbgg7JnGvHFCRVUiYN-4" value="nfs-driver" style="shape=umlLifeline;perimeter=lifelinePerimeter;whiteSpace=wrap;html=1;container=1;dropTarget=0;collapsible=0;recursiveResize=0;outlineConnect=0;portConstraint=eastwest;newEdgeStyle={&quot;curved&quot;:0,&quot;rounded&quot;:0};fillColor=#fff2cc;strokeColor=#d6b656;" vertex="1" parent="1">
          <mxGeometry x="439" y="80" width="80" height="600" as="geometry" />
        </mxCell>
        <mxCell id="p5qbgg7JnGvHFCRVUiYN-6" value="&lt;span style=&quot;text-align: left;&quot;&gt;CSI Controller Plugin&lt;/span&gt;" style="text;html=1;align=center;verticalAlign=middle;whiteSpace=wrap;rounded=0;" vertex="1" parent="1">
          <mxGeometry x="329" y="50" width="121" height="30" as="geometry" />
        </mxCell>
        <mxCell id="p5qbgg7JnGvHFCRVUiYN-7" value="kubelet" style="shape=umlLifeline;perimeter=lifelinePerimeter;whiteSpace=wrap;html=1;container=1;dropTarget=0;collapsible=0;recursiveResize=0;outlineConnect=0;portConstraint=eastwest;newEdgeStyle={&quot;curved&quot;:0,&quot;rounded&quot;:0};fillColor=#f5f5f5;fontColor=#333333;strokeColor=#666666;" vertex="1" parent="1">
          <mxGeometry x="213" y="80" width="100" height="600" as="geometry" />
        </mxCell>
        <mxCell id="p5qbgg7JnGvHFCRVUiYN-8" value="node-driver-registrar" style="shape=umlLifeline;perimeter=lifelinePerimeter;whiteSpace=wrap;html=1;container=1;dropTarget=0;collapsible=0;recursiveResize=0;outlineConnect=0;portConstraint=eastwest;newEdgeStyle={&quot;curved&quot;:0,&quot;rounded&quot;:0};fillColor=#f8cecc;strokeColor=#b85450;" vertex="1" parent="1">
          <mxGeometry x="562.5" y="80" width="100" height="600" as="geometry" />
        </mxCell>
        <mxCell id="p5qbgg7JnGvHFCRVUiYN-9" value="nfs-driver" style="shape=umlLifeline;perimeter=lifelinePerimeter;whiteSpace=wrap;html=1;container=1;dropTarget=0;collapsible=0;recursiveResize=0;outlineConnect=0;portConstraint=eastwest;newEdgeStyle={&quot;curved&quot;:0,&quot;rounded&quot;:0};fillColor=#e1d5e7;strokeColor=#9673a6;" vertex="1" parent="1">
          <mxGeometry x="672.5" y="80" width="100" height="600" as="geometry" />
        </mxCell>
        <mxCell id="p5qbgg7JnGvHFCRVUiYN-29" value="" style="html=1;points=[[0,0,0,0,5],[0,1,0,0,-5],[1,0,0,0,5],[1,1,0,0,-5]];perimeter=orthogonalPerimeter;outlineConnect=0;targetShapes=umlLifeline;portConstraint=eastwest;newEdgeStyle={&quot;curved&quot;:0,&quot;rounded&quot;:0};" vertex="1" parent="p5qbgg7JnGvHFCRVUiYN-9">
          <mxGeometry x="45" y="536" width="10" height="50" as="geometry" />
        </mxCell>
        <mxCell id="p5qbgg7JnGvHFCRVUiYN-11" value="&lt;span style=&quot;text-align: left;&quot;&gt;CSI Node Plugin&lt;/span&gt;" style="text;html=1;align=center;verticalAlign=middle;whiteSpace=wrap;rounded=0;" vertex="1" parent="1">
          <mxGeometry x="547" y="50" width="100" height="30" as="geometry" />
        </mxCell>
        <mxCell id="p5qbgg7JnGvHFCRVUiYN-12" value="NFS server" style="shape=umlLifeline;perimeter=lifelinePerimeter;whiteSpace=wrap;html=1;container=1;dropTarget=0;collapsible=0;recursiveResize=0;outlineConnect=0;portConstraint=eastwest;newEdgeStyle={&quot;curved&quot;:0,&quot;rounded&quot;:0};fillColor=#f5f5f5;fontColor=#333333;strokeColor=#666666;" vertex="1" parent="1">
          <mxGeometry x="809" y="80" width="100" height="600" as="geometry" />
        </mxCell>
        <mxCell id="p5qbgg7JnGvHFCRVUiYN-14" value="watch &lt;font color=&quot;#cc0000&quot;&gt;PVC&lt;/font&gt; (PersistentVolumeClaim)" style="html=1;verticalAlign=bottom;endArrow=block;curved=0;rounded=0;" edge="1" parent="1">
          <mxGeometry width="80" relative="1" as="geometry">
            <mxPoint x="378.5" y="210" as="sourcePoint" />
            <mxPoint x="152.5" y="210" as="targetPoint" />
          </mxGeometry>
        </mxCell>
        <mxCell id="p5qbgg7JnGvHFCRVUiYN-15" value="register driver" style="html=1;verticalAlign=bottom;endArrow=block;curved=0;rounded=0;" edge="1" parent="1">
          <mxGeometry width="80" relative="1" as="geometry">
            <mxPoint x="612" y="250" as="sourcePoint" />
            <mxPoint x="262.5" y="250" as="targetPoint" />
          </mxGeometry>
        </mxCell>
        <mxCell id="p5qbgg7JnGvHFCRVUiYN-16" value="create &lt;font color=&quot;#cc0000&quot;&gt;SC&lt;/font&gt; (StorageClass)" style="html=1;verticalAlign=bottom;endArrow=block;curved=0;rounded=0;" edge="1" parent="1" target="p5qbgg7JnGvHFCRVUiYN-1">
          <mxGeometry width="80" relative="1" as="geometry">
            <mxPoint x="69" y="350" as="sourcePoint" />
            <mxPoint x="499" y="350" as="targetPoint" />
          </mxGeometry>
        </mxCell>
        <mxCell id="p5qbgg7JnGvHFCRVUiYN-18" value="create &lt;font color=&quot;#cc0000&quot;&gt;PVC&lt;/font&gt;" style="html=1;verticalAlign=bottom;endArrow=block;curved=0;rounded=0;" edge="1" parent="1" target="p5qbgg7JnGvHFCRVUiYN-1">
          <mxGeometry width="80" relative="1" as="geometry">
            <mxPoint x="69" y="410" as="sourcePoint" />
            <mxPoint x="499" y="350" as="targetPoint" />
          </mxGeometry>
        </mxCell>
        <mxCell id="p5qbgg7JnGvHFCRVUiYN-19" value="" style="html=1;verticalAlign=bottom;endArrow=block;curved=0;rounded=0;" edge="1" parent="1">
          <mxGeometry width="80" relative="1" as="geometry">
            <mxPoint x="152.5" y="420" as="sourcePoint" />
            <mxPoint x="378.5" y="420" as="targetPoint" />
          </mxGeometry>
        </mxCell>
        <mxCell id="p5qbgg7JnGvHFCRVUiYN-20" value="&lt;font color=&quot;#cc00cc&quot;&gt;CSI gRPC: CreateVolume&lt;/font&gt;" style="html=1;verticalAlign=bottom;endArrow=block;curved=0;rounded=0;" edge="1" parent="1">
          <mxGeometry width="80" relative="1" as="geometry">
            <mxPoint x="379" y="442" as="sourcePoint" />
            <mxPoint x="479" y="442" as="targetPoint" />
          </mxGeometry>
        </mxCell>
        <mxCell id="p5qbgg7JnGvHFCRVUiYN-21" value="prepare directory" style="html=1;verticalAlign=bottom;endArrow=block;curved=0;rounded=0;" edge="1" parent="1">
          <mxGeometry width="80" relative="1" as="geometry">
            <mxPoint x="478.5" y="448" as="sourcePoint" />
            <mxPoint x="858.5" y="448" as="targetPoint" />
          </mxGeometry>
        </mxCell>
        <mxCell id="p5qbgg7JnGvHFCRVUiYN-22" value="" style="html=1;verticalAlign=bottom;endArrow=open;dashed=1;endSize=8;curved=0;rounded=0;" edge="1" parent="1">
          <mxGeometry relative="1" as="geometry">
            <mxPoint x="857" y="461" as="sourcePoint" />
            <mxPoint x="477" y="461" as="targetPoint" />
          </mxGeometry>
        </mxCell>
        <mxCell id="p5qbgg7JnGvHFCRVUiYN-23" value="" style="html=1;verticalAlign=bottom;endArrow=open;dashed=1;endSize=8;curved=0;rounded=0;" edge="1" parent="1">
          <mxGeometry relative="1" as="geometry">
            <mxPoint x="479" y="470" as="sourcePoint" />
            <mxPoint x="379" y="470" as="targetPoint" />
          </mxGeometry>
        </mxCell>
        <mxCell id="p5qbgg7JnGvHFCRVUiYN-24" value="create &lt;font color=&quot;#cc0000&quot;&gt;PV&lt;/font&gt;" style="html=1;verticalAlign=bottom;endArrow=block;curved=0;rounded=0;" edge="1" parent="1">
          <mxGeometry width="80" relative="1" as="geometry">
            <mxPoint x="378.5" y="480" as="sourcePoint" />
            <mxPoint x="152.5" y="480" as="targetPoint" />
          </mxGeometry>
        </mxCell>
        <mxCell id="p5qbgg7JnGvHFCRVUiYN-25" value="PVC bound to PV" style="text;html=1;align=center;verticalAlign=middle;whiteSpace=wrap;rounded=0;" vertex="1" parent="1">
          <mxGeometry x="45" y="470" width="106" height="30" as="geometry" />
        </mxCell>
        <mxCell id="p5qbgg7JnGvHFCRVUiYN-26" value="create &lt;font color=&quot;#cc0000&quot;&gt;Pod&lt;/font&gt;" style="html=1;verticalAlign=bottom;endArrow=block;curved=0;rounded=0;" edge="1" parent="1">
          <mxGeometry width="80" relative="1" as="geometry">
            <mxPoint x="69" y="588" as="sourcePoint" />
            <mxPoint x="152.5" y="588" as="targetPoint" />
            <Array as="points">
              <mxPoint x="69" y="588" />
            </Array>
          </mxGeometry>
        </mxCell>
        <mxCell id="p5qbgg7JnGvHFCRVUiYN-27" value="" style="html=1;verticalAlign=bottom;endArrow=block;curved=0;rounded=0;" edge="1" parent="1">
          <mxGeometry width="80" relative="1" as="geometry">
            <mxPoint x="152.5" y="605" as="sourcePoint" />
            <mxPoint x="262.5" y="605" as="targetPoint" />
          </mxGeometry>
        </mxCell>
        <mxCell id="p5qbgg7JnGvHFCRVUiYN-28" value="&lt;font color=&quot;#cc00cc&quot;&gt;CSI gRPC: NodePublishVolume&lt;/font&gt;" style="html=1;verticalAlign=bottom;endArrow=block;curved=0;rounded=0;" edge="1" parent="1">
          <mxGeometry width="80" relative="1" as="geometry">
            <mxPoint x="262.5" y="616" as="sourcePoint" />
            <mxPoint x="722" y="616" as="targetPoint" />
          </mxGeometry>
        </mxCell>
        <mxCell id="p5qbgg7JnGvHFCRVUiYN-30" value="&lt;font color=&quot;#3333ff&quot;&gt;Mount&lt;/font&gt;" style="text;html=1;align=center;verticalAlign=middle;whiteSpace=wrap;rounded=0;" vertex="1" parent="1">
          <mxGeometry x="727" y="626" width="42" height="30" as="geometry" />
        </mxCell>
        <mxCell id="p5qbgg7JnGvHFCRVUiYN-31" value="" style="html=1;verticalAlign=bottom;endArrow=block;curved=0;rounded=0;dashed=1;" edge="1" parent="1">
          <mxGeometry width="80" relative="1" as="geometry">
            <mxPoint x="722" y="666" as="sourcePoint" />
            <mxPoint x="858.5" y="666" as="targetPoint" />
          </mxGeometry>
        </mxCell>
        <mxCell id="p5qbgg7JnGvHFCRVUiYN-33" value="dynamic provision" style="shape=umlFrame;whiteSpace=wrap;html=1;pointerEvents=0;width=110;height=30;dashed=1;fillColor=#f8cecc;strokeColor=#b85450;" vertex="1" parent="1">
          <mxGeometry x="29" y="290" width="890" height="220" as="geometry" />
        </mxCell>
        <mxCell id="p5qbgg7JnGvHFCRVUiYN-34" value="pod volume" style="shape=umlFrame;whiteSpace=wrap;html=1;pointerEvents=0;width=110;height=30;dashed=1;fillColor=#e1d5e7;strokeColor=#9673a6;" vertex="1" parent="1">
          <mxGeometry x="29" y="530" width="890" height="150" as="geometry" />
        </mxCell>
      </root>
    </mxGraphModel>
  </diagram>
  <diagram id="WwLOIJMw8iEeR2OR5Xhu" name="VFS">
    <mxGraphModel dx="1029" dy="792" grid="1" gridSize="10" guides="1" tooltips="1" connect="1" arrows="1" fold="1" page="1" pageScale="1" pageWidth="827" pageHeight="1169" math="0" shadow="0">
      <root>
        <mxCell id="0" />
        <mxCell id="1" parent="0" />
        <mxCell id="tWIOqjUKiuZe-sULNaa_-15" value="" style="rounded=0;whiteSpace=wrap;html=1;strokeColor=none;" vertex="1" parent="1">
          <mxGeometry x="80" y="115" width="550" height="350" as="geometry" />
        </mxCell>
        <mxCell id="tWIOqjUKiuZe-sULNaa_-8" style="edgeStyle=orthogonalEdgeStyle;rounded=0;orthogonalLoop=1;jettySize=auto;html=1;exitX=0.5;exitY=1;exitDx=0;exitDy=0;entryX=0.5;entryY=0;entryDx=0;entryDy=0;" edge="1" parent="1" source="tWIOqjUKiuZe-sULNaa_-1" target="tWIOqjUKiuZe-sULNaa_-2">
          <mxGeometry relative="1" as="geometry" />
        </mxCell>
        <mxCell id="tWIOqjUKiuZe-sULNaa_-1" value="Application" style="rounded=0;whiteSpace=wrap;html=1;fillColor=#f5f5f5;fontColor=#333333;strokeColor=#666666;" vertex="1" parent="1">
          <mxGeometry x="210" y="150" width="120" height="60" as="geometry" />
        </mxCell>
        <mxCell id="tWIOqjUKiuZe-sULNaa_-9" style="rounded=0;orthogonalLoop=1;jettySize=auto;html=1;exitX=0.5;exitY=1;exitDx=0;exitDy=0;entryX=0.5;entryY=0;entryDx=0;entryDy=0;dashed=1;" edge="1" parent="1" source="tWIOqjUKiuZe-sULNaa_-2" target="tWIOqjUKiuZe-sULNaa_-6">
          <mxGeometry relative="1" as="geometry" />
        </mxCell>
        <mxCell id="tWIOqjUKiuZe-sULNaa_-10" style="edgeStyle=orthogonalEdgeStyle;rounded=0;orthogonalLoop=1;jettySize=auto;html=1;exitX=0.5;exitY=1;exitDx=0;exitDy=0;entryX=0.5;entryY=0;entryDx=0;entryDy=0;dashed=1;" edge="1" parent="1" source="tWIOqjUKiuZe-sULNaa_-2" target="tWIOqjUKiuZe-sULNaa_-5">
          <mxGeometry relative="1" as="geometry" />
        </mxCell>
        <mxCell id="tWIOqjUKiuZe-sULNaa_-11" style="rounded=0;orthogonalLoop=1;jettySize=auto;html=1;exitX=0.5;exitY=1;exitDx=0;exitDy=0;entryX=0.5;entryY=0;entryDx=0;entryDy=0;" edge="1" parent="1" source="tWIOqjUKiuZe-sULNaa_-2" target="tWIOqjUKiuZe-sULNaa_-7">
          <mxGeometry relative="1" as="geometry" />
        </mxCell>
        <mxCell id="tWIOqjUKiuZe-sULNaa_-2" value="VFS" style="rounded=0;whiteSpace=wrap;html=1;fillColor=#dae8fc;strokeColor=#6c8ebf;" vertex="1" parent="1">
          <mxGeometry x="210" y="260" width="120" height="60" as="geometry" />
        </mxCell>
        <mxCell id="tWIOqjUKiuZe-sULNaa_-5" value="fat32" style="rounded=1;whiteSpace=wrap;html=1;" vertex="1" parent="1">
          <mxGeometry x="225" y="360" width="90" height="60" as="geometry" />
        </mxCell>
        <mxCell id="tWIOqjUKiuZe-sULNaa_-6" value="ext4" style="rounded=1;whiteSpace=wrap;html=1;" vertex="1" parent="1">
          <mxGeometry x="110" y="360" width="90" height="60" as="geometry" />
        </mxCell>
        <mxCell id="tWIOqjUKiuZe-sULNaa_-14" style="edgeStyle=orthogonalEdgeStyle;rounded=0;orthogonalLoop=1;jettySize=auto;html=1;exitX=1;exitY=0.5;exitDx=0;exitDy=0;entryX=0;entryY=0.5;entryDx=0;entryDy=0;" edge="1" parent="1" source="tWIOqjUKiuZe-sULNaa_-7" target="tWIOqjUKiuZe-sULNaa_-13">
          <mxGeometry relative="1" as="geometry" />
        </mxCell>
        <mxCell id="tWIOqjUKiuZe-sULNaa_-7" value="NFS&lt;div&gt;(client)&lt;/div&gt;" style="rounded=1;whiteSpace=wrap;html=1;fillColor=#ffe6cc;strokeColor=#d79b00;" vertex="1" parent="1">
          <mxGeometry x="340" y="360" width="90" height="60" as="geometry" />
        </mxCell>
        <mxCell id="tWIOqjUKiuZe-sULNaa_-12" value="system call" style="text;html=1;align=center;verticalAlign=middle;whiteSpace=wrap;rounded=0;" vertex="1" parent="1">
          <mxGeometry x="280" y="237" width="80" height="23" as="geometry" />
        </mxCell>
        <mxCell id="tWIOqjUKiuZe-sULNaa_-13" value="NFS&amp;nbsp;&lt;span style=&quot;background-color: initial;&quot;&gt;server&lt;/span&gt;" style="rounded=1;whiteSpace=wrap;html=1;fillColor=#fff2cc;strokeColor=#d6b656;" vertex="1" parent="1">
          <mxGeometry x="490" y="360" width="90" height="60" as="geometry" />
        </mxCell>
        <mxCell id="tWIOqjUKiuZe-sULNaa_-16" value="open / read / write" style="text;html=1;align=center;verticalAlign=middle;whiteSpace=wrap;rounded=0;" vertex="1" parent="1">
          <mxGeometry x="170" y="217" width="100" height="20" as="geometry" />
        </mxCell>
        <mxCell id="tWIOqjUKiuZe-sULNaa_-17" value="" style="endArrow=none;html=1;rounded=0;dashed=1;" edge="1" parent="1">
          <mxGeometry width="50" height="50" relative="1" as="geometry">
            <mxPoint x="100" y="238" as="sourcePoint" />
            <mxPoint x="450" y="238" as="targetPoint" />
          </mxGeometry>
        </mxCell>
        <mxCell id="tWIOqjUKiuZe-sULNaa_-18" value="RPC" style="text;html=1;align=center;verticalAlign=middle;whiteSpace=wrap;rounded=0;" vertex="1" parent="1">
          <mxGeometry x="430" y="370" width="60" height="20" as="geometry" />
        </mxCell>
      </root>
    </mxGraphModel>
  </diagram>
</mxfile>
